<mxfile host="app.diagrams.net" modified="2024-02-15T11:25:15.351Z" agent="Mozilla/5.0 (Windows NT 10.0; Win64; x64) AppleWebKit/537.36 (KHTML, like Gecko) Chrome/121.0.0.0 Safari/537.36" etag="sFF6BBJtFVBCcR34jPPI" version="23.1.4" type="github">
  <diagram name="Page-1" id="90a13364-a465-7bf4-72fc-28e22215d7a0">
    <mxGraphModel dx="1750" dy="883" grid="1" gridSize="10" guides="1" tooltips="1" connect="1" arrows="1" fold="1" page="1" pageScale="1.5" pageWidth="1169" pageHeight="826" background="none" math="0" shadow="0">
      <root>
        <mxCell id="0" style=";html=1;" />
        <mxCell id="1" style=";html=1;" parent="0" />
        <mxCell id="ZLrNhD5u5SHP2nrK1hEg-11" style="edgeStyle=orthogonalEdgeStyle;rounded=0;orthogonalLoop=1;jettySize=auto;html=1;exitX=1;exitY=0.5;exitDx=0;exitDy=0;entryX=1;entryY=0.5;entryDx=0;entryDy=0;" parent="1" source="ZLrNhD5u5SHP2nrK1hEg-1" target="ZLrNhD5u5SHP2nrK1hEg-10" edge="1">
          <mxGeometry relative="1" as="geometry" />
        </mxCell>
        <mxCell id="ZLrNhD5u5SHP2nrK1hEg-1" value="100MHz&lt;br&gt;VTOCXO" style="shape=parallelogram;perimeter=parallelogramPerimeter;whiteSpace=wrap;html=1;fixedSize=1;" parent="1" vertex="1">
          <mxGeometry x="290" y="30" width="120" height="60" as="geometry" />
        </mxCell>
        <mxCell id="ZLrNhD5u5SHP2nrK1hEg-4" value="Vref" style="edgeStyle=orthogonalEdgeStyle;rounded=0;orthogonalLoop=1;jettySize=auto;html=1;exitX=1;exitY=0.5;exitDx=0;exitDy=0;entryX=0;entryY=0.5;entryDx=0;entryDy=0;" parent="1" source="ZLrNhD5u5SHP2nrK1hEg-2" target="ZLrNhD5u5SHP2nrK1hEg-1" edge="1">
          <mxGeometry y="20" relative="1" as="geometry">
            <mxPoint as="offset" />
          </mxGeometry>
        </mxCell>
        <mxCell id="ZLrNhD5u5SHP2nrK1hEg-2" value="DAC" style="rounded=1;whiteSpace=wrap;html=1;" parent="1" vertex="1">
          <mxGeometry x="150" y="40" width="70" height="40" as="geometry" />
        </mxCell>
        <mxCell id="ZLrNhD5u5SHP2nrK1hEg-8" value="I2C" style="edgeStyle=orthogonalEdgeStyle;rounded=0;orthogonalLoop=1;jettySize=auto;html=1;exitX=0.5;exitY=0;exitDx=0;exitDy=0;entryX=0.5;entryY=1;entryDx=0;entryDy=0;" parent="1" source="ZLrNhD5u5SHP2nrK1hEg-5" target="ZLrNhD5u5SHP2nrK1hEg-2" edge="1">
          <mxGeometry relative="1" as="geometry" />
        </mxCell>
        <mxCell id="zk5Tj1fj6JuDacKhQGvg-79" value="&lt;font style=&quot;font-size: 14px;&quot;&gt;I2C&lt;/font&gt;" style="edgeStyle=orthogonalEdgeStyle;rounded=0;orthogonalLoop=1;jettySize=auto;html=1;exitX=0.5;exitY=1;exitDx=0;exitDy=0;entryX=0.5;entryY=1;entryDx=0;entryDy=0;" edge="1" parent="1" source="ZLrNhD5u5SHP2nrK1hEg-5" target="ZLrNhD5u5SHP2nrK1hEg-9">
          <mxGeometry relative="1" as="geometry" />
        </mxCell>
        <mxCell id="ZLrNhD5u5SHP2nrK1hEg-5" value="PIC&lt;br&gt;16F" style="whiteSpace=wrap;html=1;aspect=fixed;" parent="1" vertex="1">
          <mxGeometry x="145" y="120" width="80" height="80" as="geometry" />
        </mxCell>
        <mxCell id="ZLrNhD5u5SHP2nrK1hEg-7" value="1 PPS" style="edgeStyle=orthogonalEdgeStyle;rounded=0;orthogonalLoop=1;jettySize=auto;html=1;" parent="1" source="ZLrNhD5u5SHP2nrK1hEg-6" target="ZLrNhD5u5SHP2nrK1hEg-5" edge="1">
          <mxGeometry x="-0.1429" y="10" relative="1" as="geometry">
            <mxPoint as="offset" />
          </mxGeometry>
        </mxCell>
        <mxCell id="ZLrNhD5u5SHP2nrK1hEg-6" value="" style="ellipse;whiteSpace=wrap;html=1;aspect=fixed;" parent="1" vertex="1">
          <mxGeometry x="60" y="150" width="20" height="20" as="geometry" />
        </mxCell>
        <mxCell id="ZLrNhD5u5SHP2nrK1hEg-17" value="&lt;font style=&quot;font-size: 14px;&quot;&gt;Vtune&lt;/font&gt;" style="edgeStyle=orthogonalEdgeStyle;rounded=0;orthogonalLoop=1;jettySize=auto;html=1;exitX=1;exitY=0.5;exitDx=0;exitDy=0;" parent="1" source="ZLrNhD5u5SHP2nrK1hEg-9" target="ZLrNhD5u5SHP2nrK1hEg-16" edge="1">
          <mxGeometry x="-0.1111" y="15" relative="1" as="geometry">
            <mxPoint as="offset" />
          </mxGeometry>
        </mxCell>
        <mxCell id="zk5Tj1fj6JuDacKhQGvg-29" style="edgeStyle=orthogonalEdgeStyle;rounded=0;orthogonalLoop=1;jettySize=auto;html=1;dashed=1;" edge="1" parent="1" source="ZLrNhD5u5SHP2nrK1hEg-9" target="zk5Tj1fj6JuDacKhQGvg-23">
          <mxGeometry relative="1" as="geometry">
            <Array as="points">
              <mxPoint x="740" y="20" />
              <mxPoint x="1240" y="20" />
            </Array>
          </mxGeometry>
        </mxCell>
        <mxCell id="zk5Tj1fj6JuDacKhQGvg-80" value="&lt;font style=&quot;font-size: 14px;&quot;&gt;Vtune&lt;/font&gt;" style="edgeLabel;html=1;align=center;verticalAlign=middle;resizable=0;points=[];" vertex="1" connectable="0" parent="zk5Tj1fj6JuDacKhQGvg-29">
          <mxGeometry x="0.7905" y="-1" relative="1" as="geometry">
            <mxPoint as="offset" />
          </mxGeometry>
        </mxCell>
        <mxCell id="ZLrNhD5u5SHP2nrK1hEg-9" value="ADF41513&lt;br&gt;PLL" style="whiteSpace=wrap;html=1;aspect=fixed;" parent="1" vertex="1">
          <mxGeometry x="720" y="85" width="90" height="90" as="geometry" />
        </mxCell>
        <mxCell id="ZLrNhD5u5SHP2nrK1hEg-10" value="" style="triangle;whiteSpace=wrap;html=1;rotation=-180;" parent="1" vertex="1">
          <mxGeometry x="490" y="20" width="60" height="80" as="geometry" />
        </mxCell>
        <mxCell id="ZLrNhD5u5SHP2nrK1hEg-14" value="" style="pointerEvents=1;verticalLabelPosition=bottom;shadow=0;dashed=0;align=center;html=1;verticalAlign=top;shape=mxgraph.electrical.resistors.resistor_2;rotation=-25;" parent="1" vertex="1">
          <mxGeometry x="510" y="40" width="40" height="10" as="geometry" />
        </mxCell>
        <mxCell id="ZLrNhD5u5SHP2nrK1hEg-15" value="" style="pointerEvents=1;verticalLabelPosition=bottom;shadow=0;dashed=0;align=center;html=1;verticalAlign=top;shape=mxgraph.electrical.resistors.resistor_2;rotation=45;" parent="1" vertex="1">
          <mxGeometry x="510" y="70" width="40" height="10" as="geometry" />
        </mxCell>
        <mxCell id="ZLrNhD5u5SHP2nrK1hEg-20" value="&lt;font style=&quot;font-size: 14px;&quot;&gt;2.54791GHz&lt;br&gt;(2.45-2.8)&lt;/font&gt;" style="edgeStyle=orthogonalEdgeStyle;rounded=0;orthogonalLoop=1;jettySize=auto;html=1;" parent="1" source="ZLrNhD5u5SHP2nrK1hEg-16" target="ZLrNhD5u5SHP2nrK1hEg-18" edge="1">
          <mxGeometry x="0.0588" y="40" relative="1" as="geometry">
            <mxPoint as="offset" />
          </mxGeometry>
        </mxCell>
        <mxCell id="zk5Tj1fj6JuDacKhQGvg-28" style="edgeStyle=orthogonalEdgeStyle;rounded=0;orthogonalLoop=1;jettySize=auto;html=1;exitX=0.5;exitY=0;exitDx=0;exitDy=0;" edge="1" parent="1" source="ZLrNhD5u5SHP2nrK1hEg-16" target="ZLrNhD5u5SHP2nrK1hEg-9">
          <mxGeometry relative="1" as="geometry">
            <Array as="points">
              <mxPoint x="940" y="60" />
              <mxPoint x="790" y="60" />
            </Array>
          </mxGeometry>
        </mxCell>
        <mxCell id="ZLrNhD5u5SHP2nrK1hEg-16" value="CrystekVCO&lt;br&gt;Low PN" style="whiteSpace=wrap;html=1;aspect=fixed;" parent="1" vertex="1">
          <mxGeometry x="900" y="90" width="80" height="80" as="geometry" />
        </mxCell>
        <mxCell id="RYeYVxRvwyWX_2oDE-uA-7" value="" style="edgeStyle=orthogonalEdgeStyle;rounded=0;orthogonalLoop=1;jettySize=auto;html=1;" parent="1" source="ZLrNhD5u5SHP2nrK1hEg-18" target="RYeYVxRvwyWX_2oDE-uA-6" edge="1">
          <mxGeometry relative="1" as="geometry" />
        </mxCell>
        <mxCell id="ZLrNhD5u5SHP2nrK1hEg-18" value="HMC443&lt;br&gt;(HMC695)&lt;br&gt;x4" style="whiteSpace=wrap;html=1;aspect=fixed;" parent="1" vertex="1">
          <mxGeometry x="900" y="220" width="80" height="80" as="geometry" />
        </mxCell>
        <mxCell id="ZLrNhD5u5SHP2nrK1hEg-21" value="AMP" style="triangle;whiteSpace=wrap;html=1;rotation=90;" parent="1" vertex="1">
          <mxGeometry x="910" y="420" width="60" height="80" as="geometry" />
        </mxCell>
        <mxCell id="RYeYVxRvwyWX_2oDE-uA-1" value="" style="endArrow=classic;html=1;rounded=0;exitX=0;exitY=0.25;exitDx=0;exitDy=0;" parent="1" source="zk5Tj1fj6JuDacKhQGvg-17" edge="1">
          <mxGeometry width="50" height="50" relative="1" as="geometry">
            <mxPoint x="610" y="100" as="sourcePoint" />
            <mxPoint x="630" y="110" as="targetPoint" />
          </mxGeometry>
        </mxCell>
        <mxCell id="RYeYVxRvwyWX_2oDE-uA-2" value="TSS-183A" style="text;strokeColor=none;align=center;fillColor=none;html=1;verticalAlign=middle;whiteSpace=wrap;rounded=0;" parent="1" vertex="1">
          <mxGeometry x="970" y="445" width="60" height="30" as="geometry" />
        </mxCell>
        <mxCell id="zk5Tj1fj6JuDacKhQGvg-9" style="edgeStyle=orthogonalEdgeStyle;rounded=0;orthogonalLoop=1;jettySize=auto;html=1;exitX=1;exitY=0.165;exitDx=0;exitDy=0;exitPerimeter=0;entryX=1;entryY=0.5;entryDx=0;entryDy=0;" edge="1" parent="1" source="RYeYVxRvwyWX_2oDE-uA-3" target="zk5Tj1fj6JuDacKhQGvg-8">
          <mxGeometry relative="1" as="geometry" />
        </mxCell>
        <mxCell id="RYeYVxRvwyWX_2oDE-uA-3" value="" style="pointerEvents=1;verticalLabelPosition=bottom;shadow=0;dashed=0;align=center;html=1;verticalAlign=top;shape=mxgraph.electrical.miscellaneous.coaxial_outside_conductor;rotation=90;" parent="1" vertex="1">
          <mxGeometry x="760" y="620" width="290" height="90" as="geometry" />
        </mxCell>
        <mxCell id="RYeYVxRvwyWX_2oDE-uA-5" value="&lt;font style=&quot;font-size: 18px;&quot;&gt;10.192666GHz&lt;br&gt;+18dBm&lt;/font&gt;" style="text;strokeColor=none;align=center;fillColor=none;html=1;verticalAlign=middle;whiteSpace=wrap;rounded=0;" parent="1" vertex="1">
          <mxGeometry x="980" y="520" width="60" height="30" as="geometry" />
        </mxCell>
        <mxCell id="RYeYVxRvwyWX_2oDE-uA-10" style="edgeStyle=orthogonalEdgeStyle;rounded=0;orthogonalLoop=1;jettySize=auto;html=1;exitX=0.5;exitY=1;exitDx=0;exitDy=0;exitPerimeter=0;entryX=0;entryY=0.5;entryDx=0;entryDy=0;" parent="1" source="RYeYVxRvwyWX_2oDE-uA-6" target="ZLrNhD5u5SHP2nrK1hEg-21" edge="1">
          <mxGeometry relative="1" as="geometry" />
        </mxCell>
        <mxCell id="RYeYVxRvwyWX_2oDE-uA-6" value="" style="verticalLabelPosition=bottom;shadow=0;dashed=0;align=center;html=1;verticalAlign=top;shape=mxgraph.electrical.abstract.filter;" parent="1" vertex="1">
          <mxGeometry x="914" y="350" width="52" height="46" as="geometry" />
        </mxCell>
        <mxCell id="RYeYVxRvwyWX_2oDE-uA-11" value="ABF-10R125&lt;br&gt;(other UC2731)" style="text;strokeColor=none;align=center;fillColor=none;html=1;verticalAlign=middle;whiteSpace=wrap;rounded=0;" parent="1" vertex="1">
          <mxGeometry x="820" y="366" width="94" height="30" as="geometry" />
        </mxCell>
        <mxCell id="RYeYVxRvwyWX_2oDE-uA-13" value="SMA" style="text;strokeColor=none;align=center;fillColor=none;html=1;verticalAlign=middle;whiteSpace=wrap;rounded=0;" parent="1" vertex="1">
          <mxGeometry x="860" y="600" width="60" height="30" as="geometry" />
        </mxCell>
        <mxCell id="zk5Tj1fj6JuDacKhQGvg-1" value="" style="shape=flexArrow;endArrow=classic;html=1;rounded=0;" edge="1" parent="1">
          <mxGeometry width="50" height="50" relative="1" as="geometry">
            <mxPoint x="159.5" y="1100" as="sourcePoint" />
            <mxPoint x="159.5" y="1150" as="targetPoint" />
          </mxGeometry>
        </mxCell>
        <mxCell id="zk5Tj1fj6JuDacKhQGvg-2" value="" style="rounded=0;whiteSpace=wrap;html=1;rotation=-90;" vertex="1" parent="1">
          <mxGeometry x="120" y="1060" width="80" height="10" as="geometry" />
        </mxCell>
        <mxCell id="zk5Tj1fj6JuDacKhQGvg-4" value="" style="html=1;shadow=0;dashed=0;align=center;verticalAlign=middle;shape=mxgraph.arrows2.bendArrow;dy=3.1;dx=33.2;notch=0;arrowHead=12.4;rounded=0;rotation=0;" vertex="1" parent="1">
          <mxGeometry x="165" y="1060" width="65" height="40" as="geometry" />
        </mxCell>
        <mxCell id="zk5Tj1fj6JuDacKhQGvg-5" value="20dB&lt;br&gt;Coupler&lt;br&gt;UG387/U" style="text;strokeColor=none;align=center;fillColor=none;html=1;verticalAlign=middle;whiteSpace=wrap;rounded=0;" vertex="1" parent="1">
          <mxGeometry x="90" y="1090" width="60" height="30" as="geometry" />
        </mxCell>
        <mxCell id="zk5Tj1fj6JuDacKhQGvg-7" value="122.4GHz&lt;br&gt;Gunn Osc&lt;br&gt;+13dBm" style="shape=hexagon;perimeter=hexagonPerimeter2;whiteSpace=wrap;html=1;fixedSize=1;" vertex="1" parent="1">
          <mxGeometry x="100" y="950" width="120" height="80" as="geometry" />
        </mxCell>
        <mxCell id="zk5Tj1fj6JuDacKhQGvg-58" style="edgeStyle=orthogonalEdgeStyle;rounded=0;orthogonalLoop=1;jettySize=auto;html=1;exitX=0.5;exitY=0;exitDx=0;exitDy=0;entryX=0;entryY=0.5;entryDx=0;entryDy=0;" edge="1" parent="1" source="zk5Tj1fj6JuDacKhQGvg-8" target="zk5Tj1fj6JuDacKhQGvg-55">
          <mxGeometry relative="1" as="geometry" />
        </mxCell>
        <mxCell id="zk5Tj1fj6JuDacKhQGvg-8" value="SHM&lt;br&gt;12th Harmonic" style="rounded=1;whiteSpace=wrap;html=1;" vertex="1" parent="1">
          <mxGeometry x="230" y="1040" width="120" height="60" as="geometry" />
        </mxCell>
        <mxCell id="zk5Tj1fj6JuDacKhQGvg-10" value="" style="edgeStyle=none;orthogonalLoop=1;jettySize=auto;html=1;rounded=0;shape=link;dashed=1;" edge="1" parent="1">
          <mxGeometry width="80" relative="1" as="geometry">
            <mxPoint y="920" as="sourcePoint" />
            <mxPoint x="400" y="920" as="targetPoint" />
            <Array as="points" />
          </mxGeometry>
        </mxCell>
        <mxCell id="zk5Tj1fj6JuDacKhQGvg-11" value="" style="edgeStyle=none;orthogonalLoop=1;jettySize=auto;html=1;rounded=0;shape=link;dashed=1;" edge="1" parent="1">
          <mxGeometry width="80" relative="1" as="geometry">
            <mxPoint x="400" y="920" as="sourcePoint" />
            <mxPoint x="400" y="1220.800048828125" as="targetPoint" />
            <Array as="points" />
          </mxGeometry>
        </mxCell>
        <mxCell id="zk5Tj1fj6JuDacKhQGvg-12" value="&lt;font size=&quot;3&quot; face=&quot;Courier New&quot;&gt;&lt;b&gt;At Feed&lt;/b&gt;&lt;/font&gt;" style="text;strokeColor=none;align=center;fillColor=none;html=1;verticalAlign=middle;whiteSpace=wrap;rounded=0;" vertex="1" parent="1">
          <mxGeometry x="310" y="1120" width="60" height="30" as="geometry" />
        </mxCell>
        <mxCell id="zk5Tj1fj6JuDacKhQGvg-13" value="" style="edgeStyle=none;orthogonalLoop=1;jettySize=auto;html=1;rounded=0;shape=link;dashed=1;" edge="1" parent="1">
          <mxGeometry width="80" relative="1" as="geometry">
            <mxPoint y="280" as="sourcePoint" />
            <mxPoint x="780" y="280" as="targetPoint" />
            <Array as="points" />
          </mxGeometry>
        </mxCell>
        <mxCell id="zk5Tj1fj6JuDacKhQGvg-14" value="" style="edgeStyle=none;orthogonalLoop=1;jettySize=auto;html=1;rounded=0;shape=link;dashed=1;" edge="1" parent="1">
          <mxGeometry width="80" relative="1" as="geometry">
            <mxPoint x="780" y="620" as="sourcePoint" />
            <mxPoint x="780" y="280" as="targetPoint" />
            <Array as="points" />
          </mxGeometry>
        </mxCell>
        <mxCell id="zk5Tj1fj6JuDacKhQGvg-15" value="" style="edgeStyle=none;orthogonalLoop=1;jettySize=auto;html=1;rounded=0;shape=link;dashed=1;" edge="1" parent="1">
          <mxGeometry width="80" relative="1" as="geometry">
            <mxPoint x="780" y="620" as="sourcePoint" />
            <mxPoint x="1490" y="620" as="targetPoint" />
            <Array as="points" />
          </mxGeometry>
        </mxCell>
        <mxCell id="zk5Tj1fj6JuDacKhQGvg-17" value="100MHz OUT" style="pointerEvents=1;verticalLabelPosition=bottom;shadow=0;dashed=0;align=center;html=1;verticalAlign=top;shape=mxgraph.electrical.miscellaneous.coaxial_jack_plug" vertex="1" parent="1">
          <mxGeometry x="630" y="5" width="40" height="80" as="geometry" />
        </mxCell>
        <mxCell id="zk5Tj1fj6JuDacKhQGvg-19" style="edgeStyle=orthogonalEdgeStyle;rounded=0;orthogonalLoop=1;jettySize=auto;html=1;exitX=1;exitY=0.5;exitDx=0;exitDy=0;entryX=0;entryY=0.165;entryDx=0;entryDy=0;entryPerimeter=0;" edge="1" parent="1" source="ZLrNhD5u5SHP2nrK1hEg-21" target="RYeYVxRvwyWX_2oDE-uA-3">
          <mxGeometry relative="1" as="geometry" />
        </mxCell>
        <mxCell id="zk5Tj1fj6JuDacKhQGvg-20" value="" style="pointerEvents=1;verticalLabelPosition=bottom;shadow=0;dashed=0;align=center;html=1;verticalAlign=top;shape=mxgraph.electrical.miscellaneous.coaxial_outside_conductor;rotation=90;" vertex="1" parent="1">
          <mxGeometry x="760" y="620" width="290" height="90" as="geometry" />
        </mxCell>
        <mxCell id="zk5Tj1fj6JuDacKhQGvg-21" value="&lt;font style=&quot;font-size: 18px;&quot; face=&quot;Courier New&quot;&gt;&lt;b&gt;Board 1&lt;br&gt;Synth (universal)&lt;br&gt;&lt;/b&gt;&lt;/font&gt;" style="text;strokeColor=none;align=center;fillColor=none;html=1;verticalAlign=middle;whiteSpace=wrap;rounded=0;" vertex="1" parent="1">
          <mxGeometry x="360" y="120" width="140" height="30" as="geometry" />
        </mxCell>
        <mxCell id="zk5Tj1fj6JuDacKhQGvg-24" value="" style="edgeStyle=orthogonalEdgeStyle;rounded=0;orthogonalLoop=1;jettySize=auto;html=1;dashed=1;dashPattern=8 8;" edge="1" parent="1" source="zk5Tj1fj6JuDacKhQGvg-23">
          <mxGeometry relative="1" as="geometry">
            <mxPoint x="940" y="430" as="targetPoint" />
            <Array as="points">
              <mxPoint x="1220" y="410" />
              <mxPoint x="941" y="410" />
            </Array>
          </mxGeometry>
        </mxCell>
        <mxCell id="zk5Tj1fj6JuDacKhQGvg-23" value="ALT&lt;br&gt;HMC116x&lt;br&gt;VCO" style="whiteSpace=wrap;html=1;aspect=fixed;" vertex="1" parent="1">
          <mxGeometry x="1180" y="190" width="80" height="80" as="geometry" />
        </mxCell>
        <mxCell id="zk5Tj1fj6JuDacKhQGvg-25" style="edgeStyle=orthogonalEdgeStyle;rounded=0;orthogonalLoop=1;jettySize=auto;html=1;exitX=1;exitY=0.5;exitDx=0;exitDy=0;exitPerimeter=0;entryX=0;entryY=0.25;entryDx=0;entryDy=0;entryPerimeter=0;" edge="1" parent="1" source="ZLrNhD5u5SHP2nrK1hEg-14" target="zk5Tj1fj6JuDacKhQGvg-17">
          <mxGeometry relative="1" as="geometry" />
        </mxCell>
        <mxCell id="zk5Tj1fj6JuDacKhQGvg-26" value="&lt;font style=&quot;font-size: 12px;&quot;&gt;FRef&lt;/font&gt;" style="edgeStyle=orthogonalEdgeStyle;rounded=0;orthogonalLoop=1;jettySize=auto;html=1;exitX=1;exitY=0.5;exitDx=0;exitDy=0;exitPerimeter=0;" edge="1" parent="1" source="ZLrNhD5u5SHP2nrK1hEg-15" target="ZLrNhD5u5SHP2nrK1hEg-9">
          <mxGeometry x="-0.015" y="-10" relative="1" as="geometry">
            <Array as="points">
              <mxPoint x="600" y="89" />
              <mxPoint x="600" y="130" />
            </Array>
            <mxPoint as="offset" />
          </mxGeometry>
        </mxCell>
        <mxCell id="zk5Tj1fj6JuDacKhQGvg-27" style="edgeStyle=orthogonalEdgeStyle;rounded=0;orthogonalLoop=1;jettySize=auto;html=1;dashed=1;" edge="1" parent="1" source="zk5Tj1fj6JuDacKhQGvg-23" target="ZLrNhD5u5SHP2nrK1hEg-9">
          <mxGeometry relative="1" as="geometry">
            <mxPoint x="760" y="90" as="targetPoint" />
            <Array as="points">
              <mxPoint x="1220" y="40" />
              <mxPoint x="760" y="40" />
            </Array>
          </mxGeometry>
        </mxCell>
        <mxCell id="zk5Tj1fj6JuDacKhQGvg-30" value="" style="pointerEvents=1;verticalLabelPosition=bottom;shadow=0;dashed=0;align=center;html=1;verticalAlign=top;shape=mxgraph.electrical.miscellaneous.coaxial_jack_plug;rotation=-90;" vertex="1" parent="1">
          <mxGeometry x="340" y="920" width="30" height="60" as="geometry" />
        </mxCell>
        <mxCell id="zk5Tj1fj6JuDacKhQGvg-37" value="" style="edgeStyle=orthogonalEdgeStyle;rounded=0;orthogonalLoop=1;jettySize=auto;html=1;" edge="1" parent="1" source="zk5Tj1fj6JuDacKhQGvg-35" target="zk5Tj1fj6JuDacKhQGvg-7">
          <mxGeometry relative="1" as="geometry" />
        </mxCell>
        <mxCell id="zk5Tj1fj6JuDacKhQGvg-35" value="DC Tune IN" style="sketch=0;pointerEvents=1;shadow=0;dashed=0;html=1;strokeColor=none;fillColor=#505050;labelPosition=center;verticalLabelPosition=bottom;verticalAlign=top;outlineConnect=0;align=center;shape=mxgraph.office.concepts.connector;" vertex="1" parent="1">
          <mxGeometry x="16" y="950" width="44" height="32" as="geometry" />
        </mxCell>
        <mxCell id="zk5Tj1fj6JuDacKhQGvg-38" value="WG&lt;br&gt;Switch&lt;br&gt;WR-8" style="ellipse;whiteSpace=wrap;html=1;aspect=fixed;" vertex="1" parent="1">
          <mxGeometry x="130" y="1150" width="60" height="60" as="geometry" />
        </mxCell>
        <mxCell id="zk5Tj1fj6JuDacKhQGvg-40" value="Dish" style="text;strokeColor=none;align=center;fillColor=none;html=1;verticalAlign=middle;whiteSpace=wrap;rounded=0;" vertex="1" parent="1">
          <mxGeometry x="8" y="1165" width="60" height="30" as="geometry" />
        </mxCell>
        <mxCell id="zk5Tj1fj6JuDacKhQGvg-41" value="" style="shape=flexArrow;endArrow=classic;html=1;rounded=0;" edge="1" parent="1">
          <mxGeometry width="50" height="50" relative="1" as="geometry">
            <mxPoint x="190" y="1180.5" as="sourcePoint" />
            <mxPoint x="230" y="1180" as="targetPoint" />
          </mxGeometry>
        </mxCell>
        <mxCell id="zk5Tj1fj6JuDacKhQGvg-42" value="" style="shape=flexArrow;endArrow=classic;startArrow=classic;html=1;rounded=0;exitX=1;exitY=0.5;exitDx=0;exitDy=0;" edge="1" parent="1" source="zk5Tj1fj6JuDacKhQGvg-40">
          <mxGeometry width="100" height="100" relative="1" as="geometry">
            <mxPoint x="30" y="1280" as="sourcePoint" />
            <mxPoint x="130" y="1180" as="targetPoint" />
          </mxGeometry>
        </mxCell>
        <mxCell id="zk5Tj1fj6JuDacKhQGvg-43" value="RX&lt;br&gt;(VK Board)" style="text;strokeColor=none;align=center;fillColor=none;html=1;verticalAlign=middle;whiteSpace=wrap;rounded=0;" vertex="1" parent="1">
          <mxGeometry x="230" y="1165" width="70" height="30" as="geometry" />
        </mxCell>
        <mxCell id="zk5Tj1fj6JuDacKhQGvg-44" value="Gunn Power Supply&lt;br&gt;&lt;font face=&quot;Courier New&quot;&gt;&lt;b&gt;Board 2&lt;/b&gt;&lt;/font&gt;" style="whiteSpace=wrap;html=1;aspect=fixed;" vertex="1" parent="1">
          <mxGeometry x="102.5" y="670" width="190" height="190" as="geometry" />
        </mxCell>
        <mxCell id="zk5Tj1fj6JuDacKhQGvg-45" value="Modulation" style="endArrow=classic;html=1;rounded=0;entryX=-0.019;entryY=0.389;entryDx=0;entryDy=0;entryPerimeter=0;" edge="1" parent="1" target="zk5Tj1fj6JuDacKhQGvg-44">
          <mxGeometry width="50" height="50" relative="1" as="geometry">
            <mxPoint x="30" y="744" as="sourcePoint" />
            <mxPoint x="8" y="720" as="targetPoint" />
          </mxGeometry>
        </mxCell>
        <mxCell id="zk5Tj1fj6JuDacKhQGvg-46" value="DC Tune OUT" style="sketch=0;pointerEvents=1;shadow=0;dashed=0;html=1;strokeColor=none;fillColor=#505050;labelPosition=center;verticalLabelPosition=bottom;verticalAlign=top;outlineConnect=0;align=center;shape=mxgraph.office.concepts.connector;" vertex="1" parent="1">
          <mxGeometry x="120" y="800" width="44" height="32" as="geometry" />
        </mxCell>
        <mxCell id="zk5Tj1fj6JuDacKhQGvg-47" value="Set Freq" style="pointerEvents=1;verticalLabelPosition=bottom;shadow=0;dashed=0;align=center;html=1;verticalAlign=top;shape=mxgraph.electrical.resistors.trimmer_resistor_2;" vertex="1" parent="1">
          <mxGeometry x="120" y="700" width="40" height="25.5" as="geometry" />
        </mxCell>
        <mxCell id="zk5Tj1fj6JuDacKhQGvg-48" value="" style="endArrow=classic;html=1;rounded=0;exitX=0.558;exitY=0.357;exitDx=0;exitDy=0;exitPerimeter=0;" edge="1" parent="1" source="zk5Tj1fj6JuDacKhQGvg-49" target="zk5Tj1fj6JuDacKhQGvg-44">
          <mxGeometry width="50" height="50" relative="1" as="geometry">
            <mxPoint x="200" y="580" as="sourcePoint" />
            <mxPoint x="240" y="520" as="targetPoint" />
          </mxGeometry>
        </mxCell>
        <mxCell id="zk5Tj1fj6JuDacKhQGvg-49" value="Loop Filter (op-amp)" style="verticalLabelPosition=bottom;shadow=0;dashed=0;align=center;html=1;verticalAlign=top;shape=mxgraph.electrical.logic_gates.lowpass_filter;" vertex="1" parent="1">
          <mxGeometry x="120" y="500" width="135" height="86" as="geometry" />
        </mxCell>
        <mxCell id="zk5Tj1fj6JuDacKhQGvg-51" value="" style="edgeStyle=orthogonalEdgeStyle;rounded=0;orthogonalLoop=1;jettySize=auto;html=1;" edge="1" parent="1" source="zk5Tj1fj6JuDacKhQGvg-50" target="zk5Tj1fj6JuDacKhQGvg-49">
          <mxGeometry relative="1" as="geometry" />
        </mxCell>
        <mxCell id="zk5Tj1fj6JuDacKhQGvg-50" value="Phase Detector&lt;br&gt;HMC439 or&lt;br&gt;AD9901" style="rhombus;whiteSpace=wrap;html=1;" vertex="1" parent="1">
          <mxGeometry x="330" y="490.5" width="120" height="105" as="geometry" />
        </mxCell>
        <mxCell id="zk5Tj1fj6JuDacKhQGvg-53" value="" style="edgeStyle=orthogonalEdgeStyle;rounded=0;orthogonalLoop=1;jettySize=auto;html=1;entryX=0.5;entryY=0;entryDx=0;entryDy=0;exitX=0.575;exitY=0.263;exitDx=0;exitDy=0;exitPerimeter=0;" edge="1" parent="1" source="zk5Tj1fj6JuDacKhQGvg-52" target="zk5Tj1fj6JuDacKhQGvg-50">
          <mxGeometry relative="1" as="geometry" />
        </mxCell>
        <mxCell id="zk5Tj1fj6JuDacKhQGvg-54" value="" style="edgeStyle=orthogonalEdgeStyle;rounded=0;orthogonalLoop=1;jettySize=auto;html=1;" edge="1" parent="1" source="zk5Tj1fj6JuDacKhQGvg-52" target="zk5Tj1fj6JuDacKhQGvg-49">
          <mxGeometry relative="1" as="geometry" />
        </mxCell>
        <mxCell id="zk5Tj1fj6JuDacKhQGvg-52" value="100MHz Ref IN" style="pointerEvents=1;verticalLabelPosition=bottom;shadow=0;dashed=0;align=center;html=1;verticalAlign=top;shape=mxgraph.electrical.miscellaneous.coaxial_jack_plug" vertex="1" parent="1">
          <mxGeometry x="215" y="333" width="40" height="80" as="geometry" />
        </mxCell>
        <mxCell id="zk5Tj1fj6JuDacKhQGvg-55" value="" style="triangle;whiteSpace=wrap;html=1;rotation=-91;" vertex="1" parent="1">
          <mxGeometry x="260" y="970" width="40" height="50" as="geometry" />
        </mxCell>
        <mxCell id="zk5Tj1fj6JuDacKhQGvg-59" style="edgeStyle=orthogonalEdgeStyle;rounded=0;orthogonalLoop=1;jettySize=auto;html=1;exitX=1;exitY=0.5;exitDx=0;exitDy=0;entryX=0.5;entryY=0;entryDx=0;entryDy=0;entryPerimeter=0;" edge="1" parent="1" source="zk5Tj1fj6JuDacKhQGvg-55" target="zk5Tj1fj6JuDacKhQGvg-30">
          <mxGeometry relative="1" as="geometry" />
        </mxCell>
        <mxCell id="zk5Tj1fj6JuDacKhQGvg-61" value="100MHz&lt;br&gt;+24dB&lt;br&gt;PGA-103" style="text;strokeColor=none;align=center;fillColor=none;html=1;verticalAlign=middle;whiteSpace=wrap;rounded=0;" vertex="1" parent="1">
          <mxGeometry x="304" y="982" width="60" height="30" as="geometry" />
        </mxCell>
        <mxCell id="zk5Tj1fj6JuDacKhQGvg-64" style="edgeStyle=orthogonalEdgeStyle;rounded=0;orthogonalLoop=1;jettySize=auto;html=1;exitX=1;exitY=0.5;exitDx=0;exitDy=0;" edge="1" parent="1" source="zk5Tj1fj6JuDacKhQGvg-62" target="zk5Tj1fj6JuDacKhQGvg-50">
          <mxGeometry relative="1" as="geometry" />
        </mxCell>
        <mxCell id="zk5Tj1fj6JuDacKhQGvg-62" value="" style="triangle;whiteSpace=wrap;html=1;rotation=-91;" vertex="1" parent="1">
          <mxGeometry x="370" y="640" width="40" height="50" as="geometry" />
        </mxCell>
        <mxCell id="zk5Tj1fj6JuDacKhQGvg-63" value="100MHz&lt;br&gt;+24dB" style="text;strokeColor=none;align=center;fillColor=none;html=1;verticalAlign=middle;whiteSpace=wrap;rounded=0;" vertex="1" parent="1">
          <mxGeometry x="402.5" y="652" width="60" height="30" as="geometry" />
        </mxCell>
        <mxCell id="zk5Tj1fj6JuDacKhQGvg-67" style="edgeStyle=orthogonalEdgeStyle;rounded=0;orthogonalLoop=1;jettySize=auto;html=1;exitX=0.5;exitY=0;exitDx=0;exitDy=0;exitPerimeter=0;entryX=0;entryY=0.5;entryDx=0;entryDy=0;" edge="1" parent="1" source="zk5Tj1fj6JuDacKhQGvg-65" target="zk5Tj1fj6JuDacKhQGvg-62">
          <mxGeometry relative="1" as="geometry" />
        </mxCell>
        <mxCell id="zk5Tj1fj6JuDacKhQGvg-65" value="" style="verticalLabelPosition=bottom;shadow=0;dashed=0;align=center;html=1;verticalAlign=top;shape=mxgraph.electrical.abstract.filter;" vertex="1" parent="1">
          <mxGeometry x="364" y="730" width="52" height="46" as="geometry" />
        </mxCell>
        <mxCell id="zk5Tj1fj6JuDacKhQGvg-68" value="" style="triangle;whiteSpace=wrap;html=1;rotation=-91;" vertex="1" parent="1">
          <mxGeometry x="370" y="791" width="40" height="50" as="geometry" />
        </mxCell>
        <mxCell id="zk5Tj1fj6JuDacKhQGvg-69" value="100MHz&lt;br&gt;+24dB" style="text;strokeColor=none;align=center;fillColor=none;html=1;verticalAlign=middle;whiteSpace=wrap;rounded=0;" vertex="1" parent="1">
          <mxGeometry x="402.5" y="803" width="60" height="30" as="geometry" />
        </mxCell>
        <mxCell id="zk5Tj1fj6JuDacKhQGvg-71" style="edgeStyle=orthogonalEdgeStyle;rounded=0;orthogonalLoop=1;jettySize=auto;html=1;exitX=1;exitY=0.5;exitDx=0;exitDy=0;entryX=0.5;entryY=1;entryDx=0;entryDy=0;entryPerimeter=0;" edge="1" parent="1" source="zk5Tj1fj6JuDacKhQGvg-68" target="zk5Tj1fj6JuDacKhQGvg-65">
          <mxGeometry relative="1" as="geometry" />
        </mxCell>
        <mxCell id="zk5Tj1fj6JuDacKhQGvg-73" style="edgeStyle=orthogonalEdgeStyle;rounded=0;orthogonalLoop=1;jettySize=auto;html=1;exitX=1;exitY=0.25;exitDx=0;exitDy=0;exitPerimeter=0;entryX=0;entryY=0.5;entryDx=0;entryDy=0;" edge="1" parent="1" source="zk5Tj1fj6JuDacKhQGvg-72" target="zk5Tj1fj6JuDacKhQGvg-68">
          <mxGeometry relative="1" as="geometry" />
        </mxCell>
        <mxCell id="zk5Tj1fj6JuDacKhQGvg-72" value="" style="pointerEvents=1;verticalLabelPosition=bottom;shadow=0;dashed=0;align=center;html=1;verticalAlign=top;shape=mxgraph.electrical.miscellaneous.coaxial_jack_plug;rotation=-90;" vertex="1" parent="1">
          <mxGeometry x="390" y="841" width="30" height="60" as="geometry" />
        </mxCell>
        <mxCell id="zk5Tj1fj6JuDacKhQGvg-74" value="&lt;font style=&quot;font-size: 18px;&quot;&gt;Assumed gain is sufficient&lt;br&gt;Add PGA-103 if required&lt;br&gt;&lt;/font&gt;" style="text;strokeColor=none;align=center;fillColor=none;html=1;verticalAlign=middle;whiteSpace=wrap;rounded=0;" vertex="1" parent="1">
          <mxGeometry x="480" y="750" width="60" height="30" as="geometry" />
        </mxCell>
        <mxCell id="zk5Tj1fj6JuDacKhQGvg-75" value="&lt;font style=&quot;font-size: 18px;&quot; face=&quot;Courier New&quot;&gt;&lt;b&gt;Board 3&lt;/b&gt;&lt;/font&gt;" style="text;strokeColor=none;align=center;fillColor=none;html=1;verticalAlign=middle;whiteSpace=wrap;rounded=0;" vertex="1" parent="1">
          <mxGeometry x="590" y="528" width="60" height="30" as="geometry" />
        </mxCell>
        <mxCell id="zk5Tj1fj6JuDacKhQGvg-76" value="&lt;font style=&quot;font-size: 48px;&quot;&gt;122GHz PLL using Gunn Oscillator&lt;br&gt;G8KMH&lt;br&gt;Feb 2024&lt;br&gt;&lt;/font&gt;" style="text;strokeColor=default;align=center;fillColor=none;html=1;verticalAlign=middle;whiteSpace=wrap;rounded=0;strokeWidth=6;" vertex="1" parent="1">
          <mxGeometry x="1090" y="803" width="390" height="305" as="geometry" />
        </mxCell>
        <mxCell id="zk5Tj1fj6JuDacKhQGvg-77" style="edgeStyle=orthogonalEdgeStyle;rounded=0;orthogonalLoop=1;jettySize=auto;html=1;" edge="1" parent="1" source="zk5Tj1fj6JuDacKhQGvg-76" target="zk5Tj1fj6JuDacKhQGvg-76">
          <mxGeometry relative="1" as="geometry" />
        </mxCell>
      </root>
    </mxGraphModel>
  </diagram>
</mxfile>
